<mxfile host="app.diagrams.net" modified="2024-01-13T07:17:24.637Z" agent="Mozilla/5.0 (X11; Linux x86_64) AppleWebKit/537.36 (KHTML, like Gecko) Chrome/120.0.0.0 Safari/537.36" version="22.1.18" etag="rV2vnPF-_z_GxwgR34DH" type="github">
  <diagram name="第 1 页" id="ELHhrXpeZsFj96wDwaDr">
    <mxGraphModel>
      <root>
        <mxCell id="0" />
        <mxCell id="1" parent="0" />
      </root>
    </mxGraphModel>
  </diagram>
</mxfile>
